<?xml version="1.0" encoding="UTF-8"?>
<svg id="Capa_2" data-name="Capa 2" xmlns="http://www.w3.org/2000/svg" viewBox="0 0 95.81 95.58">
  <g id="elementos">
    <g>
      <path d="M36.65,64.08l3.62-9.05h15.29s3.61,9.04,3.61,9.04l6.7-.02-17.95-40.37-17.95,40.36,6.69.04ZM47.91,36.84l5.24,12.6-10.49.02,5.25-12.62Z"/>
      <path d="M79.91.01H15.67C7.69,0,0,7.32,0,15.35v64.87c0,8.04,7.7,15.36,15.66,15.36h64.3c8.72,0,15.76-8.03,15.77-16.74l.08-61.21C95.82,8.75,89.44.01,79.91.01ZM72.31,65.21l-24.39,13.53-24.4-13.51-4.39-38.1,28.78-10.28,28.78,10.27-4.38,38.1Z"/>
    </g>
  </g>
</svg>